<svg width="53" height="52" viewBox="0 0 53 52" fill="none" xmlns="http://www.w3.org/2000/svg">
<path d="M42.5135 22.7463H39.264V25.9958H42.5135C43.8058 25.9971 45.0449 26.511 45.9587 27.4248C46.8725 28.3387 47.3864 29.5777 47.3877 30.87V37.369H50.6372V30.87C50.6346 28.7163 49.7779 26.6515 48.255 25.1285C46.732 23.6056 44.6673 22.7489 42.5135 22.7463Z" fill="#E24444"/>
<path d="M39.2639 6.49896C40.228 6.49896 41.1704 6.78482 41.9719 7.32041C42.7735 7.85599 43.3982 8.61724 43.7671 9.50789C44.1361 10.3985 44.2326 11.3786 44.0445 12.3241C43.8564 13.2696 43.3922 14.1381 42.7105 14.8198C42.0289 15.5014 41.1604 15.9656 40.2149 16.1537C39.2694 16.3418 38.2893 16.2453 37.3987 15.8764C36.508 15.5074 35.7468 14.8827 35.2112 14.0811C34.6756 13.2796 34.3897 12.3372 34.3897 11.3732C34.3897 10.0804 34.9033 8.84067 35.8174 7.92658C36.7315 7.01249 37.9712 6.49896 39.2639 6.49896ZM39.2639 3.24948C37.6572 3.24948 36.0866 3.72593 34.7507 4.61857C33.4147 5.51121 32.3735 6.77996 31.7586 8.26437C31.1438 9.74878 30.9829 11.3822 31.2964 12.958C31.6098 14.5339 32.3835 15.9814 33.5196 17.1175C34.6558 18.2536 36.1033 19.0273 37.6791 19.3408C39.2549 19.6542 40.8883 19.4933 42.3728 18.8785C43.8572 18.2636 45.1259 17.2224 46.0185 15.8864C46.9112 14.5505 47.3876 12.9799 47.3876 11.3732C47.3876 9.21863 46.5317 7.15234 45.0083 5.62885C43.4848 4.10537 41.4185 3.24948 39.2639 3.24948Z" fill="#E24444"/>
<path d="M37.6393 48.7421H34.3898V45.4926C34.3885 44.2003 33.8746 42.9613 32.9607 42.0475C32.0469 41.1337 30.8079 40.6197 29.5156 40.6184H23.0166C21.7243 40.6197 20.4853 41.1337 19.5715 42.0475C18.6577 42.9613 18.1437 44.2003 18.1424 45.4926V48.7421H14.8929V45.4926C14.8955 43.3389 15.7522 41.2741 17.2752 39.7512C18.7981 38.2282 20.8629 37.3715 23.0166 37.369H29.5156C31.6693 37.3715 33.7341 38.2282 35.257 39.7512C36.78 41.2741 37.6367 43.3389 37.6393 45.4926V48.7421Z" fill="#E24444"/>
<path d="M26.266 21.1216C27.23 21.1216 28.1724 21.4074 28.974 21.943C29.7755 22.4786 30.4003 23.2399 30.7692 24.1305C31.1381 25.0212 31.2346 26.0012 31.0466 26.9467C30.8585 27.8922 30.3943 28.7607 29.7126 29.4424C29.0309 30.124 28.1624 30.5883 27.2169 30.7763C26.2714 30.9644 25.2914 30.8679 24.4007 30.499C23.5101 30.1301 22.7488 29.5053 22.2133 28.7038C21.6777 27.9022 21.3918 26.9598 21.3918 25.9958C21.3918 24.7031 21.9053 23.4633 22.8194 22.5492C23.7335 21.6351 24.9733 21.1216 26.266 21.1216ZM26.266 17.8721C24.6593 17.8721 23.0887 18.3485 21.7527 19.2412C20.4168 20.1338 19.3756 21.4026 18.7607 22.887C18.1459 24.3714 17.985 26.0048 18.2984 27.5806C18.6119 29.1565 19.3856 30.604 20.5217 31.7401C21.6578 32.8762 23.1053 33.6499 24.6812 33.9634C26.257 34.2768 27.8904 34.116 29.3748 33.5011C30.8592 32.8862 32.128 31.845 33.0206 30.5091C33.9133 29.1731 34.3897 27.6025 34.3897 25.9958C34.3897 23.8413 33.5338 21.775 32.0103 20.2515C30.4868 18.728 28.4206 17.8721 26.266 17.8721Z" fill="#E24444"/>
<path d="M13.2682 22.7463H10.0187C7.86496 22.7489 5.80017 23.6056 4.27724 25.1285C2.75431 26.6515 1.8976 28.7163 1.89502 30.87V37.369H5.14449V30.87C5.14578 29.5777 5.65973 28.3387 6.57354 27.4248C7.48735 26.511 8.72638 25.9971 10.0187 25.9958H13.2682V22.7463Z" fill="#E24444"/>
<path d="M13.2681 6.49896C14.2321 6.49896 15.1745 6.78482 15.9761 7.32041C16.7776 7.85599 17.4024 8.61724 17.7713 9.50789C18.1402 10.3985 18.2367 11.3786 18.0487 12.3241C17.8606 13.2696 17.3964 14.1381 16.7147 14.8198C16.033 15.5014 15.1645 15.9656 14.219 16.1537C13.2735 16.3418 12.2935 16.2453 11.4028 15.8764C10.5122 15.5074 9.75093 14.8827 9.21534 14.0811C8.67975 13.2796 8.39389 12.3372 8.39389 11.3732C8.39389 10.0804 8.90742 8.84067 9.82151 7.92658C10.7356 7.01249 11.9754 6.49896 13.2681 6.49896ZM13.2681 3.24948C11.6614 3.24948 10.0908 3.72593 8.75482 4.61857C7.41889 5.51121 6.37765 6.77996 5.76279 8.26437C5.14793 9.74878 4.98705 11.3822 5.30051 12.958C5.61396 14.5339 6.38767 15.9814 7.52379 17.1175C8.6599 18.2536 10.1074 19.0273 11.6832 19.3408C13.2591 19.6542 14.8925 19.4933 16.3769 18.8785C17.8613 18.2636 19.1301 17.2224 20.0227 15.8864C20.9153 14.5505 21.3918 12.9799 21.3918 11.3732C21.3918 9.21863 20.5359 7.15234 19.0124 5.62885C17.4889 4.10537 15.4226 3.24948 13.2681 3.24948Z" fill="#E24444"/>
</svg>
