<svg width="111" height="111" viewBox="0 0 111 111" fill="none" xmlns="http://www.w3.org/2000/svg">
<path d="M89.6798 48.2891H82.7813V55.1875H89.6798C92.4233 55.1903 95.0537 56.2814 96.9936 58.2213C98.9336 60.1613 100.025 62.7917 100.027 65.5352V79.3321H106.926V65.5352C106.92 60.9629 105.102 56.5795 101.869 53.3464C98.6355 50.1133 94.252 48.2946 89.6798 48.2891Z" fill="white"/>
<path d="M82.7813 13.7969C84.8279 13.7969 86.8285 14.4038 88.5302 15.5408C90.2318 16.6778 91.5581 18.2939 92.3413 20.1847C93.1245 22.0755 93.3294 24.156 92.9302 26.1633C92.5309 28.1705 91.5454 30.0143 90.0982 31.4615C88.6511 32.9086 86.8073 33.8941 84.8001 34.2934C82.7928 34.6926 80.7122 34.4877 78.8214 33.7045C76.9307 32.9214 75.3146 31.5951 74.1775 29.8934C73.0405 28.1917 72.4337 26.1911 72.4337 24.1445C72.4337 21.4002 73.5239 18.7682 75.4644 16.8276C77.405 14.8871 80.0369 13.7969 82.7813 13.7969ZM82.7813 6.89844C79.3704 6.89844 76.036 7.9099 73.1999 9.80493C70.3638 11.7 68.1533 14.3934 66.848 17.5447C65.5427 20.6961 65.2011 24.1637 65.8666 27.5091C66.532 30.8545 68.1746 33.9275 70.5865 36.3394C72.9984 38.7513 76.0714 40.3938 79.4168 41.0593C82.7622 41.7247 86.2298 41.3832 89.3811 40.0779C92.5324 38.7726 95.2259 36.5621 97.1209 33.726C99.016 30.8899 100.027 27.5555 100.027 24.1445C100.027 19.5706 98.2104 15.184 94.9762 11.9497C91.7419 8.71543 87.3553 6.89844 82.7813 6.89844Z" fill="white"/>
<path d="M79.3321 103.477H72.4337V96.5782C72.4309 93.8347 71.3398 91.2043 69.3999 89.2643C67.4599 87.3244 64.8295 86.2333 62.086 86.2305H48.2891C45.5456 86.2333 42.9152 87.3244 40.9752 89.2643C39.0353 91.2043 37.9442 93.8347 37.9414 96.5782V103.477H31.043V96.5782C31.0485 92.0059 32.8672 87.6225 36.1003 84.3894C39.3334 81.1563 43.7168 79.3376 48.2891 79.3321H62.086C66.6583 79.3376 71.0417 81.1563 74.2748 84.3894C77.5079 87.6225 79.3266 92.0059 79.3321 96.5782V103.477Z" fill="white"/>
<path d="M55.1875 44.8399C57.2341 44.8399 59.2347 45.4468 60.9364 46.5838C62.6381 47.7208 63.9643 49.3369 64.7475 51.2277C65.5307 53.1185 65.7356 55.199 65.3364 57.2063C64.9371 59.2135 63.9516 61.0573 62.5044 62.5044C61.0573 63.9516 59.2135 64.9371 57.2063 65.3364C55.199 65.7356 53.1184 65.5307 51.2277 64.7475C49.3369 63.9644 47.7208 62.6381 46.5838 60.9364C45.4468 59.2347 44.8399 57.2341 44.8399 55.1875C44.8399 52.4432 45.9301 49.8112 47.8706 47.8706C49.8112 45.9301 52.4432 44.8399 55.1875 44.8399ZM55.1875 37.9414C51.7766 37.9414 48.4422 38.9529 45.6061 40.8479C42.77 42.743 40.5595 45.4364 39.2542 48.5877C37.9489 51.7391 37.6074 55.2067 38.2728 58.5521C38.9383 61.8975 40.5808 64.9705 42.9927 67.3824C45.4046 69.7943 48.4776 71.4368 51.823 72.1023C55.1684 72.7677 58.636 72.4262 61.7873 71.1209C64.9387 69.8156 67.6321 67.6051 69.5272 64.769C71.4222 61.9329 72.4336 58.5985 72.4336 55.1875C72.4336 50.6136 70.6166 46.227 67.3824 42.9927C64.1481 39.7584 59.7615 37.9414 55.1875 37.9414Z" fill="white"/>
<path d="M27.5938 48.2891H20.6953C16.1231 48.2946 11.7396 50.1133 8.50654 53.3464C5.27345 56.5795 3.4547 60.9629 3.44922 65.5352V79.3321H10.3477V65.5352C10.3504 62.7917 11.4415 60.1613 13.3815 58.2213C15.3214 56.2814 17.9518 55.1903 20.6953 55.1875H27.5938V48.2891Z" fill="white"/>
<path d="M27.5938 13.7969C29.6403 13.7969 31.641 14.4038 33.3426 15.5408C35.0443 16.6778 36.3706 18.2939 37.1538 20.1847C37.937 22.0755 38.1419 24.156 37.7426 26.1633C37.3433 28.1705 36.3578 30.0143 34.9107 31.4615C33.4635 32.9086 31.6198 33.8941 29.6125 34.2934C27.6053 34.6926 25.5247 34.4877 23.6339 33.7045C21.7431 32.9214 20.127 31.5951 18.99 29.8934C17.853 28.1917 17.2461 26.1911 17.2461 24.1445C17.2461 21.4002 18.3363 18.7682 20.2769 16.8276C22.2174 14.8871 24.8494 13.7969 27.5938 13.7969ZM27.5938 6.89844C24.1828 6.89844 20.8485 7.9099 18.0123 9.80493C15.1762 11.7 12.9658 14.3934 11.6604 17.5447C10.3551 20.6961 10.0136 24.1637 10.679 27.5091C11.3445 30.8545 12.987 33.9275 15.3989 36.3394C17.8108 38.7513 20.8838 40.3938 24.2292 41.0593C27.5746 41.7247 31.0423 41.3832 34.1936 40.0779C37.3449 38.7726 40.0384 36.5621 41.9334 33.726C43.8284 30.8899 44.8399 27.5555 44.8399 24.1445C44.8399 19.5706 43.0229 15.184 39.7886 11.9497C36.5543 8.71543 32.1677 6.89844 27.5938 6.89844Z" fill="white"/>
</svg>
